<svg xmlns="http://www.w3.org/2000/svg" xmlns:xlink="http://www.w3.org/1999/xlink" version="1.1" x="0px" y="0px" viewBox="0 0 50 62.5" enable-background="new 0 0 50 50" xml:space="preserve"><path d="M17.878,34.813l-6.923,6.923c0.282,0.178,0.551,0.379,0.793,0.62c0.244,0.244,0.445,0.513,0.621,0.793l7.021-7.021  C18.841,35.743,18.336,35.301,17.878,34.813z"/><path d="M6.821,43.771c-0.469,0.469-0.727,1.093-0.727,1.757c0,0.663,0.258,1.287,0.728,1.757c0.938,0.938,2.575,0.938,3.513,0  c0.968-0.969,0.968-2.545,0-3.514c-0.469-0.469-1.093-0.727-1.756-0.727C7.914,43.044,7.291,43.302,6.821,43.771z"/><path d="M25,20.339c-4.293,0-7.785,3.492-7.785,7.785s3.492,7.785,7.785,7.785s7.785-3.492,7.785-7.785S29.293,20.339,25,20.339z"/><path d="M38.252,42.356c0.242-0.241,0.511-0.443,0.793-0.621l-6.923-6.922c-0.459,0.487-0.964,0.93-1.513,1.315l7.021,7.021  C37.807,42.869,38.008,42.601,38.252,42.356z"/><path d="M27.484,4.495c0-1.369-1.114-2.483-2.485-2.483c-1.369,0-2.483,1.114-2.483,2.483c0,1.37,1.114,2.484,2.483,2.484  C26.37,6.979,27.484,5.865,27.484,4.495z"/><path d="M43.906,45.527c0-0.664-0.258-1.287-0.728-1.757c-0.469-0.469-1.093-0.727-1.756-0.727c-0.664,0-1.288,0.258-1.757,0.727  c-0.968,0.969-0.968,2.545,0.001,3.514c0.935,0.937,2.573,0.938,3.512,0C43.648,46.814,43.906,46.19,43.906,45.527z"/><path d="M26,18.39V8.857c-0.323,0.074-0.655,0.122-1,0.122c-0.345,0-0.677-0.047-1-0.122v9.532c0.329-0.034,0.663-0.051,1-0.051  C25.337,18.339,25.671,18.356,26,18.39z"/><text x="0" y="65" fill="#000000" font-size="5px" font-weight="bold" font-family="'Helvetica Neue', Helvetica, Arial-Unicode, Arial, Sans-serif">Created by Alex Burte</text><text x="0" y="70" fill="#000000" font-size="5px" font-weight="bold" font-family="'Helvetica Neue', Helvetica, Arial-Unicode, Arial, Sans-serif">from the Noun Project</text></svg>